<svg xmlns="http://www.w3.org/2000/svg" viewBox="0 0 50 50" width="50" height="50"><path d="M25 0c-13.81 0-25 11.19-25 25s11.19 25 25 25 25-11.19 25-25-11.19-25-25-25zm4.22 11.74c0-.75.18-1.51.32-2.88.19-1.84.96-2.98 1.92-3.62l.02-.01h.01l.15-.09c.88-.56 3.17-1.8 8.9 3.38 6.17 5.58 4.78 8.76 4.78 8.76-.26.81-.63 1.45-1.12 1.95-.93.98-2.01 1.02-3.11 1.26-.75.16-1.78.41-2.81.38h-.03c-.32 0-.64-.04-.93-.13-.76-.19-1.46-.61-1.99-1.42l-.03-.04-.02-.02c-1.53-2.47-3.6-3.85-3.95-4-.24-.1-.98-.65-1.51-1.44l-.1-.15-.06-.11-.03-.05c-.13-.23-.23-.47-.29-.73l-.02-.08v-.03c-.06-.27-.1-.54-.1-.83v-.1zm6.22 13.26c0 .31-.25.56-.56.56-.31 0-.56-.25-.56-.56 0-.31.25-.57.56-.57.31.01.56.26.56.57zm-5.6-7.77c1.62 0 2.93 1.31 2.93 2.93s-1.31 2.93-2.93 2.93-2.93-1.31-2.93-2.93 1.31-2.93 2.93-2.93zm-4.84-14.94c1.52 0 2.76 1.24 2.76 2.76 0 .19-.02.38-.06.56l-1.22 6.13c-.11.71-.73 1.26-1.48 1.26-.72 0-1.33-.51-1.47-1.19v-.02l-1.18-5.99c-.04-.14-.07-.29-.09-.43l-.02-.31c0-1.53 1.24-2.77 2.76-2.77zm0 24.11l-1.4-1.4 1.4-1.4 1.4 1.4-1.4 1.4zm.56 8.47c0 .31-.25.56-.56.56-.31 0-.56-.25-.56-.56 0-.31.25-.56.56-.56.31 0 .56.25.56.56zm-1.12-19.74c0-.31.25-.56.56-.56.31 0 .56.25.56.56 0 .31-.25.56-.56.56-.31 0-.56-.25-.56-.56zm-1.35 5.03c0 1.62-1.31 2.93-2.93 2.93s-2.93-1.31-2.93-2.93 1.31-2.93 2.93-2.93 2.93 1.32 2.93 2.93zm-14.59-10.69c5.58-6.17 8.76-4.78 8.76-4.78.81.26 1.45.63 1.95 1.12.98.93 1.02 2.01 1.26 3.11.16.75.41 1.78.38 2.81v.03c0 .32-.04.64-.13.93-.19.76-.61 1.46-1.42 1.99l-.04.03-.02.02c-2.47 1.53-3.85 3.61-4 3.95-.1.24-.65.98-1.44 1.51l-.15.1-.11.06-.05.03c-.23.13-.47.23-.73.29l-.08.02h-.03c-.27.06-.54.1-.83.1h-.09c-.75 0-1.51-.18-2.88-.32-1.84-.19-2.98-.96-3.62-1.92l-.01-.02v-.01l-.09-.15c-.56-.89-1.81-3.18 3.37-8.9zm7.19 15.53c0 .31-.25.56-.56.56-.31 0-.56-.25-.56-.56 0-.31.25-.56.56-.56.3-.01.56.25.56.56zm-13.4 0c0-1.52 1.24-2.76 2.76-2.76.19 0 .38.02.56.06l6.13 1.22c.72.12 1.26.74 1.26 1.49 0 .72-.51 1.33-1.19 1.47h-.02l-5.99 1.18c-.14.04-.64.1-.75.1-1.53 0-2.76-1.24-2.76-2.76zm18.17 16.14c-.19 1.84-.96 2.98-1.92 3.62l-.02.01h-.01l-.15.09c-.88.56-3.17 1.8-8.9-3.38-6.17-5.58-4.78-8.76-4.78-8.76.26-.81.63-1.45 1.12-1.95.93-.98 2.01-1.02 3.11-1.26.75-.16 1.78-.41 2.81-.38h.03c.32 0 .64.04.93.13.76.19 1.46.61 1.99 1.42l.03.04.02.02c1.53 2.47 3.6 3.85 3.95 4 .24.1.98.65 1.51 1.44l.17.29c.13.23.32.81.33.84v.03c.06.27.1.54.1.83 0 .03-.18 1.6-.32 2.97zm-.3-8.37c-1.62 0-2.93-1.31-2.93-2.93s1.31-2.93 2.93-2.93 2.93 1.31 2.93 2.93-1.31 2.93-2.93 2.93zm4.84 14.94c-1.52 0-2.76-1.24-2.76-2.76 0-.19.02-.38.06-.56l1.22-6.13c.11-.71.73-1.26 1.48-1.26.72 0 1.33.51 1.47 1.19v.02l1.18 5.99c.04.14.07.29.09.43l.02.31c0 1.53-1.24 2.77-2.76 2.77zm1.91-17.87c0-1.62 1.31-2.93 2.93-2.93s2.93 1.31 2.93 2.93-1.31 2.93-2.93 2.93-2.93-1.31-2.93-2.93zm14.59 10.69c-5.58 6.17-8.76 4.78-8.76 4.78-.81-.26-1.45-.63-1.95-1.12-.98-.93-1.02-2.01-1.26-3.11-.16-.75-.41-1.78-.38-2.81v-.03c0-.32.04-.64.13-.93.19-.76.61-1.46 1.42-1.99l.04-.03.02-.02c2.47-1.53 3.85-3.61 4-3.95.1-.24.65-.98 1.44-1.51l.15-.1.11-.06.05-.03c.23-.13.47-.23.73-.29l.08-.02h.03c.27-.06.54-.1.83-.1h.09c.75 0 1.51.18 2.88.32 1.84.19 2.98.96 3.62 1.92l.01.02v.01l.09.15c.56.89 1.81 3.18-3.37 8.9zm3.46-12.77c-.19 0-.38-.02-.56-.06l-6.13-1.22c-.72-.12-1.26-.74-1.26-1.48 0-.72.51-1.33 1.19-1.47h.02l5.99-1.18c.14-.04.29-.07.43-.09l.31-.02c1.52 0 2.76 1.24 2.76 2.76 0 1.53-1.23 2.76-2.75 2.76z" fill="#ccc"/></svg>