<?xml version="1.0" encoding="utf-8"?>
<!-- Generator: Adobe Illustrator 15.1.0, SVG Export Plug-In . SVG Version: 6.00 Build 0)  -->
<!DOCTYPE svg PUBLIC "-//W3C//DTD SVG 1.1//EN" "http://www.w3.org/Graphics/SVG/1.1/DTD/svg11.dtd">
<svg version="1.1" id="Layer_1" xmlns="http://www.w3.org/2000/svg" xmlns:xlink="http://www.w3.org/1999/xlink" x="0px" y="0px"
	 width="40px" height="40px" viewBox="0 0 40 40" enable-background="new 0 0 40 40" xml:space="preserve">
<path fill="#FFFFFF" d="M20,5C11.992,5,5.5,11.492,5.5,19.5S11.992,34,20,34s14.5-6.492,14.5-14.5S28.008,5,20,5z M28,22.5l-7,7
	c-0.27,0.268-0.62,0.5-1,0.5c-0.379,0-0.732-0.232-1-0.5l-7-7c-0.56-0.561-0.56-1.441,0-2c0.56-0.56,1.44-0.56,2,0l4.5,4.5V10.5
	C18.5,9.709,19.209,9,20,9s1.5,0.709,1.5,1.5V25l4.5-4.5c0.559-0.56,1.439-0.56,2,0C28.561,21.059,28.561,21.941,28,22.5z"/>
</svg>
