<svg xmlns="http://www.w3.org/2000/svg" viewBox="0 800 80 100" width="80px" height="100px" fill="#f90" enable-background="new 0 800 80 100"><path d="M66.04 895.23c.36-2.85-1.08-4.06-3.58-3.32 1.55.83 2.85 2.03 2.48 3.72-.27 1.23-1.13 2.09-2.46 2.67.63-3.22-.8-3.6-2.24-3.91-1.42-.3-3.58.61-4.02 1.75-.53 1.37.91 2.81 2.58 3.34-2.14.89-3.91.58-5.18-.38-1.24-.93-.63-2.95-.33-4.31.07-.32.02-.83-.21-1.01-5.45-4.09-10.17-8.78-14.62-13.7l-.23-.1c-5.97 2.96-10.17 7.25-12.6 13.02-.3.71-1.04.99-1.8.92-1.55-.14-3.18-.52-4.81-1.25.68-2.47 3.29-5.33 5.79-6.83.26-.16-.08-.47-.35-.36-1.83.78-5.72 4.57-7.1 6.52-1.37.02-3.6-1.13-5.07-2.07 1.67-1.8 4.38-4.53 6.98-6.08.19-.11-.05-.38-.24-.28-2.38 1.3-5.74 3.71-7.12 5.24-.48.53-1.33.45-1.94.08-.86-.53-2.5-1.43-3.32-2.18 2.07-1.9 4.57-3.9 7.73-5.18.31-.12.02-.58-.3-.46-3.52 1.34-6.53 3.21-7.96 4.3-.57.31-.95.39-1.47-.07-1.74-1.14-3.01-2.49-4.65-3.98 13.26-5.47 17.3-7.31 24.71-12.69-1.37-2.49-2.71-4.92-4.05-7.35 3.92.37 7.68.73 11.44 1.09l.09-.38-.89-.33c-3.94-1.44-7.88-2.86-11.8-4.35-.51-.19-1.01-.73-1.19-1.21-.91-2.41-1.72-4.85-2.58-7.32 4.24 1.45 8.32 2.84 12.39 4.24l.15-.33c-1.69-.98-3.43-1.9-5.05-2.96-2.61-1.72-5.14-3.52-7.68-5.31-.32-.23-.67-.6-.72-.94-.3-2.28-.52-4.55-.79-7.04 2.05 1.23 3.79 2.39 5.64 3.37 1.87.99 3.86 1.8 5.8 2.69l.14-.23c-1.34-1.12-2.73-2.2-4.02-3.36-2.19-1.98-4.34-3.98-6.43-6.04-.39-.39-.63-1.09-.57-1.61.27-2.17.68-4.32 1.1-6.79 2.71 3.09 5.52 5.65 9.22 7.34-1.06-1.38-2.2-2.72-3.17-4.15-1.5-2.22-2.9-4.49-4.3-6.76-.21-.34-.32-.87-.17-1.2 1.23-2.81 2.53-5.58 4.01-8.36 1.38 3.4 3.01 6.59 5.66 9.67-.59-2.25-2.14-9.76-2.57-11.55-.42-1.76-.36-2.54 1.29-4.6 1.24-1.56 2.52-3.07 3.98-4.85 2.98 17.16 5.3 27.78 13.53 43.31-4.33-13.72-5.01-16.78-5.3-21.76.45-1.55 1.59-3.69 3.48-5.42-.21 3.69 1.88 7.21 2.11 6.97-.12-1.69-.94-3.72-.12-9.08 1.69-2.65 3.48-3.25 6.01-4.8-.69 4.67-.12 8.9.56 10.86 0 0 .63-8.52 2.59-11.66 1.61-.68 5.76-2.53 10.25-3.57-.7 1.49-1.32 2.79-1.91 4.1-5.25 11.64-7.95 23.76-8.34 36.25-.17 5.38.14 10.78.2 16.17.01.74.28 1.04 1.14 1.21 7.06 1.36 13.91 3.21 20 6.8 1.11.66 2.21 1.36 3.19 2.15.64.51 1.53 1.25 1.51 1.86-.21 2.52 1.6 3.42 1.42 5.26-.07.82-1.15 2.38-2.4 3.25-.33-2.03-2.61-3.66-6.49-4.66-5.42-1.2-10.93-1.22-16.73-.9 1.02 4.77 2.01 9.44 3.03 14.24 1.11-.56 4.2-2.46 7.79-1.4 1.42.44 2.54 1.17 2.78 2.59.26 1.44-.56 2.45-1.9 3.45zm10.48-20.33c-1.98-.33-3.04-1.29-2.95-3.27-1.66 1.53-1.66 2.58-.9 3.66.85 1.2 2.77.67 3.85-.39z"/></svg>