<svg xmlns="http://www.w3.org/2000/svg" viewBox="0 0 212.8 266.51" enable-background="new 0 0 212.8 266.51"><path d="M175.67 251.5c.97-7.54-2.87-10.73-9.51-8.78 4.11 2.19 7.59 5.37 6.59 9.83-.73 3.24-3.01 5.53-6.53 7.06 1.67-8.51-2.12-9.51-5.97-10.33-3.79-.8-9.52 1.61-10.7 4.63-1.41 3.63 2.42 7.43 6.86 8.81-5.7 2.35-10.39 1.52-13.79-1.01-3.31-2.46-1.67-7.78-.87-11.38.19-.84.05-2.2-.57-2.66-14.5-10.8-27.04-23.2-38.88-36.19-.06-.07-.18-.08-.61-.27-15.87 7.83-27.05 19.16-33.51 34.39-.79 1.87-2.77 2.62-4.79 2.43-4.13-.38-8.47-1.38-12.8-3.29 1.8-6.53 8.76-14.07 15.41-18.04.69-.41-.2-1.25-.94-.94-4.86 2.07-15.21 12.07-18.89 17.21-3.65.04-9.58-2.98-13.49-5.48 4.43-4.76 11.66-11.96 18.56-16.05.51-.3-.12-1.01-.64-.73-6.34 3.44-15.27 9.8-18.95 13.83-1.27 1.39-3.55 1.2-5.15.22-2.29-1.4-6.65-3.77-8.82-5.77 5.51-5.02 12.16-10.29 20.56-13.68.82-.33.04-1.53-.79-1.21-9.36 3.55-17.38 8.49-21.16 11.35-1.51.82-2.54 1.02-3.91-.18-4.62-3.02-8-6.58-12.37-10.51 35.26-14.45 46.01-19.3 65.72-33.52-3.65-6.57-7.22-13-10.78-19.41 10.42.99 20.42 1.94 30.43 2.89.08-.34.16-.68.25-1.01-.79-.29-1.58-.58-2.37-.86-10.47-3.81-20.97-7.55-31.38-11.5-1.35-.51-2.68-1.93-3.16-3.19-2.43-6.36-4.57-12.81-6.85-19.34 11.29 3.83 22.13 7.51 32.96 11.19l.4-.88c-4.49-2.6-9.13-5.02-13.43-7.83-6.93-4.53-13.66-9.29-20.42-14.03-.86-.6-1.79-1.59-1.91-2.48-.8-6.01-1.39-12.03-2.11-18.6 5.44 3.25 10.07 6.31 15.01 8.9 4.98 2.61 10.27 4.75 15.42 7.1l.38-.6c-3.57-2.95-7.26-5.8-10.68-8.87-5.82-5.22-11.55-10.52-17.11-15.96-1.04-1.02-1.68-2.87-1.51-4.24.72-5.73 1.82-11.42 2.92-17.94 7.22 8.15 14.69 14.92 24.52 19.39-2.82-3.65-5.85-7.19-8.42-10.96-3.99-5.86-7.72-11.85-11.43-17.85-.55-.89-.85-2.29-.46-3.18 3.27-7.41 6.74-14.75 10.66-22.08 3.68 8.98 8.01 17.41 15.05 25.54-1.56-5.93-5.7-25.78-6.84-30.5-1.12-4.64-.96-6.72 3.43-12.14 3.29-4.12 6.71-8.1 10.59-12.8 7.93 45.32 14.1 73.37 36 114.38-11.53-36.23-13.33-44.31-14.09-57.48 1.21-4.1 4.24-9.74 9.25-14.31-.55 9.75 4.99 19.05 5.62 18.42-.33-4.46-2.5-9.83-.32-23.99 4.49-7.01 9.25-8.58 15.99-12.67-1.83 12.33-.33 23.5 1.5 28.67 0 0 1.67-22.5 6.88-30.79 4.29-1.79 15.31-6.69 27.26-9.43-1.85 3.94-3.51 7.38-5.08 10.84-13.97 30.74-21.14 62.74-22.19 95.75-.45 14.22.37 28.46.54 42.7.02 1.95.75 2.76 3.03 3.19 18.77 3.59 37.01 8.47 53.2 17.96 2.96 1.73 5.87 3.59 8.49 5.68 1.71 1.36 4.08 3.3 4.02 4.92-.17 5.06 4.25 9.04 3.77 13.88-.22 2.24-2.07 4.36-3.43 7.03-5.36-6.7-12.62-9.08-20.22-10.75-14.41-3.16-29.06-3.23-44.51-2.38 2.7 12.61 5.35 24.94 8.07 37.62 2.96-1.48 11.18-6.49 20.71-3.69 3.77 1.16 6.76 3.08 7.39 6.83.64 3.82-1.54 6.49-5.1 9.12zm27.41-54.37c-2.89-.53-4.45-2.05-4.31-5.2-2.43 2.43-2.43 4.1-1.31 5.82 1.24 1.9 4.04 1.07 5.62-.62z"/></svg>