<?xml version="1.0" encoding="utf-8"?>
<!-- Generator: Adobe Illustrator 15.1.0, SVG Export Plug-In . SVG Version: 6.00 Build 0)  -->
<!DOCTYPE svg PUBLIC "-//W3C//DTD SVG 1.1//EN" "http://www.w3.org/Graphics/SVG/1.1/DTD/svg11.dtd">
<svg version="1.1" id="Layer_1" xmlns="http://www.w3.org/2000/svg" xmlns:xlink="http://www.w3.org/1999/xlink" x="0px" y="0px"
	 width="25px" height="25px" viewBox="0 0 25 25" enable-background="new 0 0 25 25" xml:space="preserve">
<path fill="#ffffff" d="M12.5,3.221l1.98,6.09L14.71,10h0.729h6.471l-5.24,3.77L16.08,14.2l0.23,0.7l2.01,6.09L13.1,17.21l-0.59-0.431l-0.59,0.431
	L6.7,20.99l2.01-6.09l0.229-0.7L8.35,13.77L3.1,10H9.57H10.3l0.23-0.689L12.5,3.221 M12.5,0L9.561,9H0l7.75,5.58l-2.98,9.029
	l7.73-5.6l7.721,5.6L17.25,14.58L25,9h-9.561L12.5,0L12.5,0z"/>
</svg>
