<?xml version="1.0" encoding="utf-8"?>
<!-- Generator: Adobe Illustrator 15.1.0, SVG Export Plug-In . SVG Version: 6.00 Build 0)  -->
<!DOCTYPE svg PUBLIC "-//W3C//DTD SVG 1.1//EN" "http://www.w3.org/Graphics/SVG/1.1/DTD/svg11.dtd">
<svg version="1.1" xmlns="http://www.w3.org/2000/svg" xmlns:xlink="http://www.w3.org/1999/xlink" x="0px" y="0px" width="40px"
	 height="40px" viewBox="0 0 40 40" enable-background="new 0 0 40 40" xml:space="preserve">
<g>
	<path d="M8,6v27h24V6H8z M12,30h-2v-3h2V30z M12,24h-2v-3h2V24z M12,18h-2v-3h2V18z M12,12h-2V9h2V12z M26,30H14v-9h12V30z M26,18
		H14V9h12V18z M30,30h-2v-3h2V30z M30,24h-2v-3h2V24z M30,18h-2v-3h2V18z M30,12h-2V9h2V12z" style="fill:#ffffff"/>
</g>
</svg>
