<svg xmlns="http://www.w3.org/2000/svg" viewBox="0 0 60 60" width="60" height="60" enable-background="new 0 0 60 60"><circle cx="15.75" cy="16.6" r="11.36" fill="#fff" stroke="#000" stroke-width="2" stroke-miterlimit="10"/><circle cx="10.48" cy="17.56" r="2.01"/><circle cx="21.84" cy="17.56" r="2.01"/><path d="M16.04 18.63" stroke="#000" stroke-miterlimit="10" fill="none"/><path d="M11.59 21.94c1.2 1.18 2.86 1.89 4.69 1.89 1.83 0 3.49-.71 4.69-1.89" stroke="#000" stroke-width="2" stroke-miterlimit="10" fill="none"/><path d="M19.66 8c.62 1.05 1.29 2.81 2.44 3.75 1.39 1.13 3.78 2.09 5.13 2.41-.03-1.06-1.03-3.03-1.68-3.96-1.34-1.92-4.98-4.83-5.89-2.2zm-14.88 5.66c1.04.08 1.47.21 2.23.02 2.13-.53 2.59-1.16 4.89-3.18.02 1.11-.65 2.6-1.63 3.46 1.75.01 3.31-.41 5.27-1.39 3.25-1.63 4.36-3.59 6.48-5.44-1.8-1.19-3.95-1.89-6.26-1.89-4.8 0-9.36 3.33-10.98 8.42zm50.72-2.18c-.02.05-20.69.05-20.71 0-2.4 1.85-3.57 5.04-2.68 8.13.43 1.49 1.27 2.75 2.37 3.69 3.37.03 18.27 0 21.34 0 1.1-.94 1.94-2.2 2.37-3.69.88-3.1-.29-6.28-2.69-8.13z"/><circle cx="45.22" cy="16.7" r="11.36" fill="#fff" stroke="#000" stroke-width="2" stroke-miterlimit="10"/><path d="M40.53 22.04c1.2 1.18 2.86 1.89 4.69 1.89 1.83 0 3.49-.71 4.69-1.89" stroke="#000" stroke-width="2" stroke-miterlimit="10" fill="none"/><circle cx="39.54" cy="17.66" r="2.01"/><circle cx="50.9" cy="17.66" r="2.01"/><path d="M56.23 13c-2.18-5-6.65-8.19-11.11-8.19s-8.94 3.19-10.91 8.19h13.56l1.08-3.87 1.26 3.87h6.12z"/><circle cx="45.15" cy="44.69" r="11.36" fill="#fff" stroke="#000" stroke-width="2" stroke-miterlimit="10"/><path d="M34.12 41.88c2.66.43 5.72.89 9.32.23 3.82-.7 7.4-3.08 9.86-5.34-1.86-1.65-4.68-3.34-7.19-3.48-5.21-.31-9.87 3.27-11.99 8.59z"/><path d="M40.46 50.04c1.2 1.18 2.86 1.89 4.69 1.89 1.83 0 3.49-.71 4.69-1.89" stroke="#000" stroke-width="2" stroke-miterlimit="10" fill="none"/><circle cx="39.47" cy="45.66" r="2.01"/><circle cx="50.83" cy="45.66" r="2.01"/><path d="M26.17 40.98c-.02.05-20.69.05-20.71 0-2.4 2.15-3.57 5.85-2.68 9.44.43 1.74 1.31 3.08 2.41 4.17 3.37.04 18.14 0 21.2 0 1.1-1.09 2.05-2.44 2.47-4.17.87-3.59-.29-7.29-2.69-9.44z"/><circle cx="15.89" cy="44.31" r="11.36" fill="#fff" stroke="#000" stroke-width="2" stroke-miterlimit="10"/><path d="M27.27 41.26c-2.52.07-5.37-.39-8.27-1.45-3.49-1.28-6.41-3.21-8.44-5.36 1.91-1.17 4.14-1.79 6.49-1.64 4.86.3 8.81 3.79 10.22 8.45zm-12.32-6.75c-.86 1.58-2.17 3.18-3.87 4.58-2.05 1.69-4.3 2.8-6.36 3.27-.05-1.6.37-3.21 1.3-4.6 1.94-2.9 5.52-4.07 8.93-3.25z"/><path d="M11.2 49.65c1.2 1.18 2.86 1.89 4.69 1.89s3.49-.71 4.69-1.89" stroke="#000" stroke-width="2" stroke-miterlimit="10" fill="none"/><circle cx="10.2" cy="45.27" r="2.01"/><circle cx="21.57" cy="45.27" r="2.01"/></svg>