<?xml version="1.0" encoding="utf-8"?>
<svg version="1.1"
	 xmlns="http://www.w3.org/2000/svg" xmlns:xlink="http://www.w3.org/1999/xlink" xmlns:a="http://ns.adobe.com/AdobeSVGViewerExtensions/3.0/"
	 x="0px" y="0px" width="19px" height="18px" viewBox="0 0 19 18" enable-background="new 0 0 19 18" xml:space="preserve">
<defs>
</defs>
<path d="M19,13c0,1.66-1.28,3-2.85,3H2.85C1.28,16,0,14.66,0,13V3c0-1.66,1.28-3,2.85-3h13.3C17.72,0,19,1.34,19,3V13z"/>
<path fill="#FFFFFF" d="M2.85,5h2.5C7,5,7.6,6.69,7.6,8c0,1.6-0.7,3-2.43,3H2.85V5z M4.14,9.6H4.9c1.04,0,1.51-1.01,1.52-1.6
	C6.43,7.39,6.1,6.4,4.9,6.4H4.14V9.6z"/>
<path fill="none" stroke="#FFFFFF" stroke-width="2" stroke-miterlimit="10" d="M8.55,12.27c1.62-0.35,2.85-2.13,2.85-4.27
	c0-2.11-1.2-3.87-2.79-4.25"/>
<path fill="none" stroke="#FFFFFF" stroke-width="2" stroke-miterlimit="10" d="M12.35,13.71c1.68-1.02,2.85-3.18,2.85-5.7
	c0-2.49-1.14-4.64-2.8-5.67"/>
</svg>
