<svg xmlns="http://www.w3.org/2000/svg" viewBox="0 0 60 60" width="60" height="60"><path d="M54.67 3.14c-.2-.14-.47-.19-.77-.08 0 0-5.36 1.04-11.37 3.14-7 2.45-11.98 7.32-12.18 7.6l-.16.27-.15-.27c-.2-.28-5.14-5.15-12.13-7.6-6.01-2.11-11.37-3.14-11.37-3.14-.3-.11-.8-.06-1 .08-.19.15-.54.41-.54.74v41.2c0 .33.35.67.54.96.2.28.58.51.88.61 0 0 4.23.27 11.42 3.14 7.06 2.82 11.4 6.99 11.4 6.99.3.1.93.13.93.13s.66-.03.95-.13c0 0 4.32-4.17 11.38-6.99 7.2-2.87 11.38-3.14 11.38-3.14.3-.1.59-.33.78-.61.2-.28.33-.63.33-.96v-41.2c.01-.33-.12-.59-.32-.74z" fill="#fff" stroke="#000" stroke-width="2" stroke-miterlimit="10"/><g stroke="#000" stroke-width="2" stroke-miterlimit="10"><path d="M41.71 21.34c.6 2.17-.03 4.94-1.46 6.33-1.51 1.47-3.4.91-4.18-1.4-.8-2.4-.03-5.54 1.67-6.85 1.6-1.24 3.35-.32 3.97 1.92zm8.64-3.42c.32 2.03-.58 4.33-2.07 5.25-1.57.96-3.25.07-3.7-2.09-.46-2.24.59-4.8 2.29-5.61 1.62-.78 3.15.36 3.48 2.45z" fill="#fff"/><path d="M41.82 21.92s-.11-1.4 1.29-1.98c1.34-.56 1.42.8 1.42.8m-10.27 6.08l1.03-.71m15.53-7.98l.86-.33" fill="none"/></g><path d="M5 45.92s8.89 2.44 12 3.51l12 7.36v-13.84s-6.47-5.26-12-7.36c-6.87-2.61-12-3.51-12-3.51v13.84zm50 0s-8.89 2.44-12 3.51l-12 7.36v-13.84s6.47-5.26 12-7.36c6.87-2.61 12-3.51 12-3.51v13.84z"/><path stroke="#000" stroke-width="2" stroke-miterlimit="10" d="M30 15v43" fill="none"/></svg>