<svg xmlns="http://www.w3.org/2000/svg" viewBox="0 0 60 60" width="60" height="60"><path d="M3 36h11.39c3.34 0 3.91 2.4 3.91 3.94 0 1.5-.71 2.8-1.7 3.23v.04c1.45.39 2.4 1.75 2.4 4.02 0 1.9-.77 4.77-4.99 4.77h-11.01v-16zm4.59 6.16h4.57c.98 0 1.41-.63 1.41-1.37 0-.72-.42-1.34-1.41-1.34h-4.57v2.71zm4.93 6.39c.96 0 1.62-.61 1.62-1.66 0-1.05-.66-1.59-1.62-1.59h-4.93v3.25h4.93zm-4.38-40.55h5.77l6.09 16h-5.06l-.85-2.6h-6.18l-.86 2.6h-5.05l6.14-16zm2.88 4.03h-.04l-1.96 6.05h3.96l-1.96-6.05zm13.98-4.03h17v2h-17zm0 4h31v2h-31zm0 8h17v2h-17zm0 4h31v2h-31zm0 12h17v2h-17zm0 4h31v2h-31zm0 7h17v2h-17zm0 4h31v2h-31z"/></svg>