<svg xmlns="http://www.w3.org/2000/svg" viewBox="0 0 60 60"  width="60" height="60" enable-background="new 0 0 60 60"><path d="M24.5 47.5c-.68 0-1.37-.04-2.02-.11-1.83 1.59-4 2.71-6.42 3.31-.5.14-1.05.23-1.59.3h-.07c-.28 0-.53-.22-.6-.52v-.01c-.07-.34.17-.55.38-.79.88-.97 1.88-1.79 2.54-4.07-2.88-1.61-4.72-4.08-4.72-6.86 0-4.84 5.59-8.75 12.5-8.75s12.5 3.91 12.5 8.75-5.59 8.75-12.5 8.75zm-10.71-8.75c0 2.04 1.39 3.98 3.81 5.32l1.21.68-.38 1.31c-.27.97-.61 1.72-.98 2.35 1.41-.57 2.69-1.35 3.84-2.34l.6-.52.8.08c.6.07 1.21.11 1.81.11 5.8 0 10.71-3.2 10.71-7s-4.91-7-10.71-7c-5.8.01-10.71 3.21-10.71 7.01zm1.71-11.25c-.68 0-1.37-.04-2.02-.11-1.83 1.59-4 2.71-6.42 3.31-.5.14-1.05.23-1.59.3h-.07c-.28 0-.53-.22-.6-.52v-.01c-.07-.34.17-.55.38-.79.88-.97 1.88-1.79 2.54-4.07-2.88-1.61-4.72-4.08-4.72-6.86 0-4.84 5.59-8.75 12.5-8.75s12.5 3.91 12.5 8.75-5.59 8.75-12.5 8.75zm-10.71-8.75c0 2.04 1.39 3.98 3.81 5.32l1.21.68-.38 1.31c-.27.97-.61 1.72-.98 2.35 1.41-.57 2.69-1.35 3.84-2.34l.6-.52.8.08c.6.07 1.21.11 1.81.11 5.8 0 10.71-3.2 10.71-7s-4.91-7-10.71-7c-5.8.01-10.71 3.21-10.71 7.01zm27.46 5c0-4.84 5.59-8.75 12.5-8.75s12.5 3.91 12.5 8.75c0 2.78-1.84 5.25-4.72 6.85.66 2.28 1.66 3.1 2.54 4.07.21.25.45.45.38.79v.01c-.07.3-.32.52-.6.52h-.07c-.54-.07-1.09-.16-1.59-.3-2.41-.6-4.59-1.72-6.42-3.31-.66.07-1.34.11-2.02.11-6.91.01-12.5-3.9-12.5-8.74zm12.5-7c-5.8 0-10.71 3.2-10.71 7s4.91 7 10.71 7c.6 0 1.21-.04 1.81-.11l.8-.08.6.52c1.14.98 2.43 1.76 3.84 2.34-.36-.63-.71-1.38-.98-2.35l-.38-1.31 1.21-.68c2.41-1.34 3.81-3.28 3.81-5.32 0-3.81-4.91-7.01-10.71-7.01z"/></svg>