<svg xmlns="http://www.w3.org/2000/svg" viewBox="0 0 60 60" width="60" height="60" enable-background="new 0 0 60 60"><path d="M10.39 8.97c1.9-.78 4.06.1 4.9 1.97 0 0-2.13.32-2.97 1.73-.89 1.48-.42 3.61-.42 3.61-1.52.03-2.98-.86-3.58-2.36-.8-1.94.13-4.16 2.07-4.95zm3.43 4.59c.54-.84 1.73-1.23 2.05-1.03l8.53 5.4c.32.21.63 1.74.16 2.61-.55 1.01-2.03 1.13-2.35.92l-1.23-.86c-.4-.33-1.98-1.36-1.98-1.36v14.76h-3v-15.99l-2.73-1.95c-.31-.2.01-1.66.55-2.5z"/><path d="M12.57 28.88l-9.07 7.96c-.36.32-.5.74-.5 1.19v8.03c0 .6.3 1.15.9 1.46l8.58 4.41c.57.29 1.26.33 1.87.09l11.66-4.55c.72-.27.99-.88.99-1.55v-13.68c0-.8-.47-1.49-1.39-1.66l-11.23-2.18c-.69-.13-1.31.05-1.81.48z" fill="#fff" stroke="#000" stroke-width="2" stroke-miterlimit="10"/><path stroke="#000" stroke-width=".988" stroke-linecap="round" stroke-linejoin="round" stroke-miterlimit="10" d="M13.58 29l-.08 23.13" fill="none"/><path d="M15.17 45.87l4.58-12.61 5.14 10.35zm34.4-36.9c-1.9-.78-4.06.1-4.9 1.97 0 0 2.13.32 2.97 1.73.89 1.48.42 3.61.42 3.61 1.52.03 2.98-.86 3.58-2.36.8-1.94-.13-4.16-2.07-4.95zm-3.44 4.59c-.54-.84-1.73-1.23-2.05-1.03l-8.53 5.4c-.32.21-.63 1.74-.16 2.61.55 1.01 2.03 1.13 2.35.92l1.26-.85c.41-.34 2-1.37 2-1.37v14.76h3v-15.99l2.7-1.95c.32-.2-.03-1.66-.57-2.5z"/><path d="M47.38 28.88l9.1 7.96c.37.32.52.75.52 1.19v8.03c0 .6-.32 1.15-.93 1.46l-8.59 4.41c-.57.29-1.26.33-1.87.09l-11.64-4.55c-.72-.27-.97-.88-.97-1.55v-13.68c0-.8.45-1.49 1.37-1.66l11.22-2.18c.68-.13 1.3.05 1.79.48z" fill="#fff" stroke="#000" stroke-width="2" stroke-miterlimit="10"/><path stroke="#000" stroke-linecap="round" stroke-linejoin="round" stroke-miterlimit="10" d="M46.5 29l.08 23.13" fill="none"/><path d="M44 44.66l-9-1.79v-8.6l9-1.79z"/></svg>