<svg xmlns="http://www.w3.org/2000/svg" viewBox="0 0 60 60" width="60" height="60"><path d="M58 44c0 1.55-1.28 2.82-2.83 2.82h-19.17c0 4.18 13 3.18 13 3.18s-.14 2-1 2h-37c-.86 0-1-2-1-2s14 1 14-3.18h-19.17c-1.56 0-2.83-1.27-2.83-2.81v-31.01c0-1.55 1.28-2.82 2.83-2.82h50.34c1.55 0 2.83 1.27 2.83 2.81v31.01z"/><path d="M54.96 13h-49.92c-.57 0-1.04.46-1.04 1.03v28.94c0 .57.47 1.03 1.04 1.03h49.92c.57 0 1.04-.46 1.04-1.03v-28.94c0-.57-.47-1.03-1.04-1.03z" fill="#fff"/><path d="M46.68 29.29c-3.52 5.79-9.96 9.69-16.74 9.69s-13.23-3.92-16.74-9.69c-.23-.4-.38-.84-.38-1.32s.15-.92.38-1.32c3.52-5.77 9.96-9.69 16.74-9.69s13.23 3.92 16.74 9.69c.23.4.38.84.38 1.32s-.15.92-.38 1.32zm-9.35-8.07c.76 1.3 1.17 2.79 1.17 4.3 0 4.72-3.84 8.56-8.56 8.56s-8.56-3.84-8.56-8.56c0-1.51.4-3 1.17-4.3-2.98 1.53-5.47 3.94-7.28 6.75 3.27 5.05 8.54 8.56 14.68 8.56s11.41-3.52 14.68-8.56c-1.83-2.81-4.32-5.22-7.3-6.75zm-7.4-1.51c-3.19 0-5.81 2.62-5.81 5.81 0 .5.42.92.92.92s.92-.42.92-.92c0-2.18 1.8-3.98 3.98-3.98.5 0 .92-.42.92-.92-.01-.49-.43-.91-.93-.91z"/></svg>