<svg xmlns="http://www.w3.org/2000/svg" viewBox="0 0 60 60" width="60" height="60" enable-background="new 0 0 60 60"><path d="M45.06 54.17l-13.99-7.17c-.52-.27-1.15-.26-1.67.02l-13.84 7.45c-1.31.7-2.85-.4-2.62-1.86l2.5-15.52c.09-.58-.1-1.17-.53-1.58l-11.35-10.86c-1.07-1.02-.5-2.84.96-3.06l15.53-2.42c.58-.09 1.08-.46 1.34-.99l6.81-14.17c.64-1.34 2.54-1.36 3.21-.03l7.1 14.03c.27.53.77.89 1.36.97l15.58 2.1c1.47.2 2.07 2 1.02 3.04l-11.15 11.09c-.42.42-.6 1.01-.5 1.59l2.81 15.47c.27 1.45-1.25 2.58-2.57 1.9z" fill="#fff" stroke="#000" stroke-width="2" stroke-linejoin="round" stroke-miterlimit="10"/><path d="M37.49 27.74c0 2.37-1.23 4.11-3.7 5.21-1.85.82-2.86 1.65-3.02 2.48-.04.22-.07.44-.09.66-.09.2-.31.3-.66.3-1.24 0-2.13.06-2.67.17l-.26.04c-.44 0-.66-.47-.66-1.4 0-.81.6-1.81 1.81-3s1.81-2.2 1.81-3c0-1.23-.84-1.84-2.52-1.84-1.07 0-2.45.32-4.16.97-.53 0-.79-1.21-.79-3.64 0-.27.02-.47.06-.6.17-.64 1.2-1.13 3.07-1.48 1.36-.26 2.68-.39 3.94-.39 2.22 0 4.06.48 5.52 1.44 1.54 1.02 2.32 2.38 2.32 4.08zm-4.99 12.28c0 .73-.33 1.37-.99 1.9-.66.53-1.46.8-2.4.8-.95 0-1.75-.27-2.4-.8-.66-.53-.99-1.17-.99-1.9s.33-1.36.99-1.88 1.46-.78 2.4-.78c.95 0 1.75.26 2.4.78s.99 1.15.99 1.88z"/></svg>