<svg xmlns="http://www.w3.org/2000/svg" viewBox="0 0 21 20" width="21px" height="20px" enable-background="new 0 0 21 20"><path d="M0 15c0 1.66-1.34 3-3 3h-14c-1.66 0-3-1.34-3-3v-10c0-1.66 1.34-3 3-3h14c1.66 0 3 1.34 3 3v10z"/><g><path d="M21 14c0 2.21-1.79 4-4 4h-13c-2.21 0-4-1.79-4-4v-7c0-2.21 1.79-4 4-4h13c2.21 0 4 1.79 4 4v7z"/><path d="M14.55 9.62c0-1.03-.23-1.46-.79-1.46-.7 0-.79.88-.79 2.33 0 1.59.09 2.31.79 2.31.62 0 .77-.43.79-1.66h1.95c-.01 2.17-.87 3.04-2.78 3.04-2.65 0-2.86-1.86-2.86-3.95 0-1.98.57-3.45 2.86-3.45 2.21 0 2.78 1.16 2.78 2.83h-1.95zM7.55 9.62c0-1.03-.23-1.46-.79-1.46-.7 0-.79.88-.79 2.33 0 1.59.09 2.31.79 2.31.62 0 .77-.43.79-1.66h1.95c-.01 2.17-.87 3.04-2.78 3.04-2.65 0-2.86-1.86-2.86-3.95 0-1.98.57-3.45 2.86-3.45 2.21 0 2.78 1.16 2.78 2.83h-1.95z" fill="#fff"/></g></svg>