<svg xmlns="http://www.w3.org/2000/svg" viewBox="0 0 20 20" width="21px" height="20px" enable-background="new 0 0 20 20"><path d="M0 15c0 1.66-1.34 3-3 3h-14c-1.66 0-3-1.34-3-3v-10c0-1.66 1.34-3 3-3h14c1.66 0 3 1.34 3 3v10z"/><g><path d="M20 15c0 1.66-1.34 3-3 3h-14c-1.66 0-3-1.34-3-3v-10c0-1.66 1.34-3 3-3h14c1.66 0 3 1.34 3 3v10z"/><path d="M3.14 7.23h2.63c1.74 0 2.37 1.69 2.37 3 0 1.6-.74 3-2.55 3h-2.45v-6zm1.36 4.6h.8c1.1 0 1.59-1.01 1.6-1.6.01-.61-.33-1.6-1.6-1.6h-.8v3.2z" fill="#fff"/><path d="M9.14 14.5c1.7-.35 3-2.13 3-4.27 0-2.11-1.26-3.87-2.93-4.26M13.14 15.94c1.77-1.02 3-3.18 3-5.7 0-2.49-1.2-4.64-2.95-5.67" stroke="#fff" stroke-width="2" stroke-miterlimit="10" fill="none"/><path d="M3.14 10.23" fill="#fff" stroke="#000" stroke-miterlimit="10"/></g><path d="M41 14c0 2.21-1.79 4-4 4h-13c-2.21 0-4-1.79-4-4v-7c0-2.21 1.79-4 4-4h13c2.21 0 4 1.79 4 4v7z"/></svg>