<svg xmlns="http://www.w3.org/2000/svg" viewBox="0 0 20 20" width="21px" height="20px" enable-background="new 0 0 20 20"><g><path d="M20 15c0 1.66-1.34 3-3 3h-14c-1.66 0-3-1.34-3-3v-10c0-1.66 1.34-3 3-3h14c1.66 0 3 1.34 3 3v10z"/><path d="M12.14 10.09l-.75-.66c.22-.25.29-.58.21-.91-.08-.33-.31-.59-.61-.7-.29-.11-.61-.08-.88.09-.27.17-.44.44-.48.75l-1-.1c.07-.62.42-1.16.96-1.5.54-.33 1.18-.4 1.76-.18.61.23 1.07.75 1.23 1.4.16.65-.01 1.32-.44 1.81z" fill="#fff"/><path d="M6.59 8.89c0-2.34 2.06-4.23 4.39-4.04 2.33.19 4.05 2.39 3.67 4.7-.31 1.92-2.15 2.74-2.83 4.46-.3.76-.61 1.48-1.46 1.73-.69.2-1.5.09-2.06-.39" stroke="#fff" stroke-width="1.5" stroke-miterlimit="10" fill="none"/><path d="M1.32 15.6l5.89-4.2 1.15 1.66-5.52 3.8c-.67-.21-1.21-.66-1.52-1.26zM16.4 7.24c-.22-.63-.5-1.23-.92-1.77l2.47-1.93c.57.43.95 1.07 1.03 1.82l-2.58 1.88z" fill="#fff"/></g><path d="M40 15c0 1.66-1.34 3-3 3h-14c-1.66 0-3-1.34-3-3v-10c0-1.66 1.34-3 3-3h14c1.66 0 3 1.34 3 3v10z"/></svg>