<svg xmlns="http://www.w3.org/2000/svg" viewBox="0 0 60 60" width="60" height="60" enable-background="new 0 0 60 60"><path d="M44.5 16.5v-2.36c0-1.89-1.71-3.64-3.73-3.64h-23.2c-.95 0-3.08 1.99-3.08 2.94v36.12c0 .95 2.13 2.94 3.08 2.94h23.2c2.01 0 3.73-2.75 3.73-4.63v-16.37h1.45l.05-15h-1.5zm-5.46-3h-21.54v31h21.54c1.61 0 1.46-1.93 1.46-3.44v-25.7c0-1.51.16-1.86-1.46-1.86z" fill="#fff" stroke="#000" stroke-miterlimit="10"/><path stroke="#000" stroke-miterlimit="10" d="M23.5 14v31" fill="none"/><path d="M26 24h13v1h-13zm0 3h13v1h-13zm0 4h13v2h-13zm0 3h13v2h-13zm0 4h13v1h-13z"/><path d="M31.16 9.51c0-.73 1.17-2.01 1.89-2.01h1.92c.72 0 1.53.98 1.53 1.58v8.83c0 .73-.41 2.58-1.13 2.58h-1.72c-.73 0-1.14-.89-1.14-1.62v-3.87" stroke="#000" stroke-miterlimit="10" fill="none"/><circle cx="21.3" cy="16.41" r=".87"/><circle cx="21.3" cy="29.29" r=".87"/><circle cx="21.3" cy="41.81" r=".87"/><path d="M47.5 11" stroke="#000" stroke-miterlimit="10" fill="none"/><path d="M48.03 52.14c0 2.68-2.07 4.86-4.63 4.86h-27.77c-2.56 0-4.63-2.17-4.63-4.86v-41.28c0-2.69 2.07-4.86 4.63-4.86h27.77c2.56 0 4.63 2.17 4.63 4.86v4.25h2.73c.68 0 1.23.54 1.23 1.21v11.46c0 .67-.55 1.21-1.23 1.21h-2.73v23.15z" fill="#fff" stroke="#000" stroke-width="2" stroke-miterlimit="10"/><circle cx="20" cy="16" r="2"/><circle cx="20" cy="30" r="2"/><circle cx="20" cy="44" r="2"/><path stroke="#000" stroke-miterlimit="10" d="M23.5 12v37" fill="none"/><path d="M26 27h15v2h-15zm0 4h15v2h-15zm0 4h15v2h-15zm0 4h15v2h-15zm0 4h15v2h-15z"/><path d="M31 5.04v-1.04c0-1.1.9-2 2-2h2.09c1.11-.23 2.02-.08 2 2v14.26c0 1.1-.9 2-2 2h-1.09c-1.1 0-2-.9-2-2v-4.09" stroke="#000" stroke-width="2" stroke-miterlimit="10" fill="none"/><path d="M41 49h-25v-38h25c1.66 0 3 1.34 3 3v32c0 1.66-1.34 3-3 3z" stroke="#000" stroke-width="2" stroke-miterlimit="10" fill="none"/></svg>