<?xml version="1.0" encoding="utf-8"?>
<svg version="1.1"
	 xmlns="http://www.w3.org/2000/svg" xmlns:xlink="http://www.w3.org/1999/xlink" xmlns:a="http://ns.adobe.com/AdobeSVGViewerExtensions/3.0/"
	 x="0px" y="0px" width="17px" height="18px" viewBox="0 0 17 18" enable-background="new 0 0 17 18" xml:space="preserve">
<path d="M17,10c0,1.66-1.34,3-3,3H3c-1.66,0-3-1.34-3-3V3c0-1.66,1.34-3,3-3h11c1.66,0,3,1.34,3,3V10z"/>
<path fill="#FFFFFF" d="M12.69,5.62c0-1.03-0.23-1.46-0.79-1.46c-0.7,0-0.79,0.88-0.79,2.33c0,1.59,0.09,2.31,0.79,2.31
	c0.62,0,0.77-0.43,0.79-1.66h1.95c-0.01,2.17-0.87,3.04-2.78,3.04C9.21,10.18,9,8.32,9,6.23c0-1.98,0.57-3.45,2.86-3.45
	c2.21,0,2.78,1.16,2.78,2.83H12.69z"/>
<path fill="#FFFFFF" d="M5.69,5.62c0-1.03-0.23-1.46-0.79-1.46c-0.7,0-0.79,0.88-0.79,2.33C4.11,8.08,4.2,8.8,4.9,8.8
	c0.62,0,0.77-0.43,0.79-1.66h1.95c-0.01,2.17-0.87,3.04-2.78,3.04C2.21,10.18,2,8.32,2,6.23c0-1.98,0.57-3.45,2.86-3.45
	c2.21,0,2.78,1.16,2.78,2.83H5.69z"/>
</svg>
