<?xml version="1.0" encoding="utf-8"?>
<!-- Generator: Adobe Illustrator 15.1.0, SVG Export Plug-In . SVG Version: 6.00 Build 0)  -->
<!DOCTYPE svg PUBLIC "-//W3C//DTD SVG 1.1//EN" "http://www.w3.org/Graphics/SVG/1.1/DTD/svg11.dtd">
<svg version="1.1" xmlns="http://www.w3.org/2000/svg" xmlns:xlink="http://www.w3.org/1999/xlink" x="0px" y="0px" width="39px"
	 height="39px" viewBox="0 0 39 39" enable-background="new 0 0 39 39" xml:space="preserve">
<g id="Layer_1">
	<rect y="0" fill="#58595B" width="39" height="39"/>
</g>
<g id="Youtube">
	<g>
		<path fill="#FFFFFF" d="M13.738,11.225v4.49h1.661v-4.49l1.997-6.598h-1.679l-1.132,4.354l-1.178-4.354h-1.749
			c0.35,1.028,0.716,2.061,1.065,3.089C13.255,9.263,13.587,10.429,13.738,11.225z"/>
		<path fill="#FFFFFF" d="M24.163,15.83c0.546,0,1.113-0.332,1.709-1.016v0.901h1.499V7.453h-1.499v6.315
			c-0.331,0.47-0.645,0.702-0.945,0.702c-0.201,0-0.316-0.119-0.351-0.351c-0.018-0.049-0.018-0.231-0.018-0.583V7.453h-1.492v6.534
			c0,0.583,0.05,0.979,0.132,1.229C23.349,15.634,23.68,15.83,24.163,15.83z"/>
		<path fill="#FFFFFF" d="M19.622,15.83c0.75,0,1.332-0.282,1.747-0.846c0.312-0.415,0.465-1.065,0.465-1.943v-2.895
			c0-0.883-0.153-1.529-0.465-1.947c-0.415-0.564-0.997-0.847-1.747-0.847c-0.746,0-1.33,0.283-1.744,0.847
			c-0.319,0.418-0.47,1.063-0.47,1.947v2.895c0,0.877,0.151,1.528,0.47,1.943C18.292,15.547,18.876,15.83,19.622,15.83z
			 M18.906,9.846c0-0.764,0.232-1.145,0.716-1.145c0.482,0,0.713,0.38,0.713,1.145v3.477c0,0.765-0.23,1.147-0.713,1.147
			c-0.484,0-0.716-0.382-0.716-1.147V9.846z"/>
		<path fill="#FFFFFF" d="M28.913,25.241c0-0.757-0.249-1.136-0.74-1.136c-0.492,0-0.741,0.379-0.741,1.136v0.756h1.481V25.241z"/>
		<path fill="#FFFFFF" d="M23.32,28.71v-3.488c0-0.737-0.218-1.116-0.645-1.116c-0.242,0-0.49,0.116-0.738,0.359v4.985
			c0.248,0.247,0.496,0.364,0.738,0.364C23.103,29.814,23.32,29.45,23.32,28.71z"/>
		<path fill="#FFFFFF" d="M10.78,33.948c3.041,0.338,6.117,0.34,9.182,0.338c3.062,0.002,6.139,0,9.18-0.338
			c1.284-0.144,2.351-1.106,2.648-2.409c0.429-1.855,0.431-3.883,0.431-5.795s0.003-3.939-0.424-5.797
			c-0.299-1.302-1.366-2.264-2.65-2.407c-3.04-0.341-6.118-0.341-9.18-0.341c-3.064,0-6.141,0-9.181,0.341
			c-1.284,0.144-2.351,1.105-2.65,2.407c-0.428,1.857-0.432,3.885-0.432,5.797s0,3.939,0.427,5.795
			C8.432,32.842,9.497,33.805,10.78,33.948z M25.955,25.535c0-0.872,0.143-1.512,0.459-1.925c0.427-0.562,1.018-0.84,1.773-0.84
			c0.743,0,1.333,0.278,1.747,0.84c0.312,0.413,0.459,1.053,0.459,1.925v1.695h-2.962v1.447c0,0.757,0.249,1.137,0.756,1.137
			c0.364,0,0.577-0.199,0.663-0.596c0.014-0.081,0.032-0.409,0.032-1.004h1.511v0.217c0,0.478-0.019,0.807-0.031,0.954
			c-0.05,0.328-0.166,0.625-0.345,0.89c-0.412,0.593-1.019,0.885-1.793,0.885c-0.776,0-1.366-0.278-1.794-0.838
			c-0.313-0.408-0.476-1.054-0.476-1.922V25.535z M20.456,20.074h1.481v3.585c0.479-0.59,0.985-0.889,1.531-0.889
			c0.589,0,0.986,0.313,1.183,0.924c0.101,0.329,0.149,0.87,0.149,1.645v3.256c0,0.756-0.049,1.299-0.149,1.647
			c-0.196,0.608-0.594,0.918-1.183,0.918c-0.527,0-1.035-0.292-1.531-0.905v0.794h-1.481V20.074z M14.913,22.87h1.481v6.021
			c0,0.347,0,0.527,0.013,0.574c0.037,0.231,0.149,0.349,0.348,0.349c0.296,0,0.609-0.23,0.936-0.694v-6.25h1.483v8.179h-1.483
			v-0.893c-0.588,0.676-1.149,1.004-1.693,1.004c-0.477,0-0.806-0.194-0.954-0.608c-0.082-0.248-0.131-0.638-0.131-1.215V22.87z
			 M9.531,20.074h5.167v1.545h-1.776v9.43h-1.647v-9.43H9.531V20.074z"/>
	</g>
</g>
<g id="Facebook">
	<path fill="#FFFFFF" d="M25.633,14.897h-4.136l0.008-2.282c0-1.188,0.113-1.826,1.82-1.826h2.282V6.23h-3.653
		c-4.383,0-5.927,2.212-5.927,5.93v2.737h-2.735v4.56h2.735v13.227h5.47V19.457h3.652L25.633,14.897z"/>
</g>
<g id="Twitter">
	<path fill="#FFFFFF" d="M33.232,11.226c-0.976,0.433-2.026,0.725-3.127,0.857c1.124-0.674,1.988-1.741,2.395-3.013
		c-1.052,0.624-2.219,1.077-3.459,1.321c-0.992-1.058-2.407-1.719-3.974-1.719c-3.008,0-5.446,2.438-5.446,5.444
		c0,0.427,0.049,0.843,0.141,1.242c-4.524-0.228-8.536-2.395-11.221-5.689c-0.47,0.804-0.738,1.739-0.738,2.737
		c0,1.889,0.961,3.556,2.422,4.533c-0.892-0.029-1.732-0.274-2.466-0.682c-0.001,0.023-0.001,0.045-0.001,0.068
		c0,2.638,1.878,4.839,4.369,5.34c-0.457,0.124-0.938,0.191-1.435,0.191c-0.351,0-0.692-0.035-1.025-0.099
		c0.694,2.163,2.703,3.736,5.087,3.78c-1.863,1.464-4.211,2.333-6.763,2.333c-0.438,0-0.873-0.027-1.298-0.076
		c2.409,1.544,5.272,2.446,8.347,2.446c10.015,0,15.493-8.297,15.493-15.493c0-0.236-0.006-0.471-0.016-0.704
		C31.579,13.276,32.502,12.317,33.232,11.226z"/>
</g>
<g id="Google__x2B_">
	<g>
		<path fill="#FFFFFF" d="M16.776,18.713c0-1.466,3.223-1.891,3.223-5.336c0-2.068-0.189-3.314-1.816-4.048
			c0-0.513,2.875-0.176,2.875-1.133c-0.5,0-6.296,0-6.296,0s-6.375,0.156-6.375,5.552c0,5.396,5.573,4.771,5.573,4.771
			s0,0.816,0,1.369c0,0.551,0.747,0.367,0.841,1.485c-0.376,0-7.743-0.194-7.743,4.693c0,4.886,6.493,4.65,6.493,4.65
			s7.507,0.344,7.507-5.727C21.058,21.353,16.776,20.18,16.776,18.713z M11.337,14.061c-0.59-2.167,0.187-4.265,1.735-4.686
			c1.547-0.421,3.279,0.994,3.869,3.161c0.589,2.167-0.188,4.266-1.735,4.688C13.658,17.643,11.926,16.228,11.337,14.061z
			 M14.559,29.157c-2.599,0.174-4.808-1.219-4.936-3.114c-0.129-1.896,1.874-3.573,4.472-3.749c2.599-0.177,4.81,1.219,4.939,3.111
			C19.161,27.302,17.16,28.98,14.559,29.157z"/>
		<polygon fill="#FFFFFF" points="32.868,12.576 32.868,13.867 28.484,13.867 28.484,18.244 27.193,18.244 27.193,13.867 
			22.816,13.867 22.816,12.576 27.193,12.576 27.193,8.194 28.484,8.194 28.484,12.576 		"/>
	</g>
</g>
</svg>
