<?xml version="1.0" encoding="utf-8"?>
<!-- Generator: Adobe Illustrator 15.1.0, SVG Export Plug-In . SVG Version: 6.00 Build 0)  -->
<!DOCTYPE svg PUBLIC "-//W3C//DTD SVG 1.1//EN" "http://www.w3.org/Graphics/SVG/1.1/DTD/svg11.dtd">
<svg version="1.1" id="Layer_1" xmlns="http://www.w3.org/2000/svg" xmlns:xlink="http://www.w3.org/1999/xlink" x="0px" y="0px"
	 width="24px" height="26px" viewBox="0 0 24 26" enable-background="new 0 0 24 26" xml:space="preserve">
<g>
	<path fill="#ffffff" d="M20.11,6.95c-0.229-0.76-0.709-1.539-1.17-1.93c-0.879-0.76-2.09-0.199-1.859-1.21c0.26-1.17-0.96-2.03-1.91-1.62
		c1.439-2.1-2.35-2.72-2.99-1.061C11.451-1.041,7.892,0.3,7.642,1.94c-0.141,0.971,0,1.71,0.399,2.561
		c-1.19,0.1-1.71,0.449-2.72,1.029c-4.65,2.67-6.09,7.259-4.95,12.241c1.909,8.311,12.63,8.63,17.28,5.52
		c1.859-1.239,5.42-3.569,5.35-9.709C22.961,9.991,22.451,7.18,20.11,6.95z M9.551,1.03c1.97-0.949,1.53,1.68,1.95,1.711
		c2.29-2.561,3.71-2.341,2.35,0.31c0.7-0.14,3.631-0.54,2.44,0.69c-0.69,0.709-0.55,1.25-0.729,1.359
		c-0.711,0.41-1.521,0.63-2.121,0.25c-0.649-0.42-0.969-1.1-3.319-0.811c-0.67-0.1-0.83-0.119-1.16-0.209
		C7.501,2.6,8.571,1.5,9.551,1.03z M16.001,6.911c1.33-0.32,1.471,2.359,0.49,2.68C15.291,9.98,14.881,7.18,16.001,6.911z
		 M8.761,7.879c2.25-0.569,1.971,3.191,0.51,3.421C7.341,11.61,7.312,8.25,8.761,7.879z M15.621,23.181
		c-1.91,0.82-9.16,2.51-12.729-2.54c-1.921-2.72-2.561-6.46-1.301-9.511C2.921,7.9,6.771,4.8,8.881,5.23
		c-7.659,4.38-0.729,13.121,4.24,6.14c0.43-0.789,0.63-3.18-1.29-5.619c-0.061-0.08,1.27,0.3,1.27,0.3c0.53,0.5,1.43,2.13,1.67,4.85
		c0.051,0.21,0.66,0.38,1.561,0c0.27-0.12,0.52-0.409,1.79-1.26c0.659-0.44,1.05-1.29,0.51-2.75c-0.61-1.229-0.93-1.17-2.22-1.54
		c0.1-0.21,0.22-0.35,0.35-0.439c0.93,0.049,2.84,0.92,2.73,2.949c1.449-0.99,2.41,2.711,2.52,4.461c0.17,2.67-0.84,5.58-1.449,6.54
		C19.151,21.11,16.581,22.771,15.621,23.181z"/>
</g>
<g>
	<path fill="#ffffff" d="M19.991,12.321c-1.32,1.119-2.6,1.51-4.07,2.35c0.811,1.07,3.1,1.529,2.62,3.56c-1.101,0.851-2.101-0.22-2.57-1.149
		c-0.229-0.461-1.829-1.931-1.46-2.871c0.02-0.049,0.16-0.01,0.631-0.439c2.1-1.93,3.279-2.75,4.279-3.081
		C19.731,10.581,21.171,10.879,19.991,12.321z"/>
</g>
</svg>
