<?xml version="1.0" encoding="utf-8"?>
<!-- Generator: Adobe Illustrator 15.1.0, SVG Export Plug-In . SVG Version: 6.00 Build 0)  -->
<!DOCTYPE svg PUBLIC "-//W3C//DTD SVG 1.1//EN" "http://www.w3.org/Graphics/SVG/1.1/DTD/svg11.dtd">
<svg version="1.1" id="Layer_1" xmlns="http://www.w3.org/2000/svg" xmlns:xlink="http://www.w3.org/1999/xlink" x="0px" y="0px"
	 width="45px" height="50px" viewBox="0 0 45 50" enable-background="new 0 0 45 50" xml:space="preserve">
<g>
	<path fill="#ffffff" d="M38.4,13.369c-0.45-1.5-1.41-2.69-2.291-3.47c-1.699-1.49-3.569-0.66-3.149-2.63c0.5-2.29-1.84-3.97-3.681-3.18
		c2.781-4.11-4.539-5.33-5.779-2.08c-1.41-4.24-7.15-0.94-7.38,2.3c-0.04,0.6-1.05,1.7,0,4.24c-2.29,0.19-3.89,0.95-5.851,2.09
		c-8.97,5.24-11.76,14.24-9.549,23.979c3.689,16.29,24.379,16.92,33.34,10.82c3.58-2.431,10.449-7,10.33-19.04
		C44.32,19.369,41.37,14.919,38.4,13.369z M19.95,2.019c3.51-1.87,2.03,2.11,2.79,2.18c3.18-3.17,6.779-3.62,4.34,1.57
		c1.25-0.28,4.84-0.9,4.34,1.36c-0.391,1.74-0.99,2.46-1.3,2.66c-1.261,0.81-2.72,1.24-3.771,0.49c-1.16-0.83-1.729-2.15-5.91-1.59
		c-1.199-0.2-1.489-0.23-2.069-0.42C17.09,6.869,18.21,2.949,19.95,2.019z M31.52,13.319c1.83-0.42,2.03,3.34,0.67,3.73
		C30.02,17.659,29.59,13.759,31.52,13.319z M17.91,15.209c2.97-0.76,2.6,4.27,0.67,4.59C16.04,20.209,16,15.699,17.91,15.209z
		 M30.16,45.219c-3.689,1.6-17.67,4.92-24.561-4.98c-3.709-5.33-4.939-12.67-2.51-18.65c2.58-6.34,10-12.399,14.061-11.56
		c-11.73,6.601-0.16,24.68,9.42,10.989c0.83-1.539,0.229-7.289-1.19-9.25c-0.12-0.16,0.88-0.78,0.88-0.78
		c0.62,1.09,2.92,4.75,2.66,10.1c0.01,0.17,0.87,0.801,2.62,0.051c0.53-0.23,1-0.811,3.45-2.461c1.27-0.859,2.02-2.529,0.98-5.39
		c-1.181-2.42-1.791-2.3-4.281-3.01c0.19-0.4,0.42-0.68,0.67-0.85c1.791,0.1,5.49,1.81,5.271,5.78c2.79-1.94,4.66,5.309,4.87,8.74
		c0.33,5.24-1.62,10.94-2.8,12.83C36.971,41.168,32,44.418,30.16,45.219z"/>
</g>
<g>
	<path fill="#ffffff" d="M39.67,22.279c-2.67,1.931-5.24,2.61-8.189,4.049c1.629,1.84,6.24,2.631,5.27,6.141c-2.221,1.459-4.23-0.371-5.18-1.99
		c-0.461-0.79-3.69-3.33-2.95-4.95c0.04-0.09,0.31-0.011,1.271-0.771c4.229-3.33,6.6-4.74,8.609-5.309
		C39.16,19.279,42.061,19.789,39.67,22.279z"/>
</g>
</svg>
