<?xml version="1.0" encoding="utf-8"?>
<!-- Generator: Adobe Illustrator 15.1.0, SVG Export Plug-In . SVG Version: 6.00 Build 0)  -->
<!DOCTYPE svg PUBLIC "-//W3C//DTD SVG 1.1//EN" "http://www.w3.org/Graphics/SVG/1.1/DTD/svg11.dtd">
<svg version="1.1" id="Your_Icon" xmlns="http://www.w3.org/2000/svg" xmlns:xlink="http://www.w3.org/1999/xlink" x="0px" y="0px"
	 width="100px" height="100px" viewBox="0 0 100 100" enable-background="new 0 0 100 100" xml:space="preserve">
<path fill="#FFFFFF" d="M50.5,13.5c5.586,0,9.73,3.261,11.089,8.724l0.565,2.276H64.5h8c2.43,0,5,2.57,5,5v3h3h14v40h-88v-40h13.962
	h3v-3c0-2.43,2.589-5,5.038-5h8h2.348l0.564-2.279C40.763,16.76,44.908,13.5,50.5,13.5 M50.5,10.5c-7.133,0-12.362,4.38-14,11h-8
	c-4.09,0-8,3.924-8,8h-17v46h94v-46h-17c0-4.076-3.911-8-8-8h-8C62.854,14.88,57.632,10.5,50.5,10.5L50.5,10.5z"/>
<path fill="#FFFFFF" d="M50,20.524l1.133,2.298l0.465,0.944l1.041,0.151l2.549,0.371l-1.845,1.8l-0.752,0.733l0.177,1.035l0.435,2.531l-2.271-1.193 L50,28.705l-0.93,0.489l-2.271,1.193l0.433-2.532l0.176-1.034l-0.75-0.733l-1.844-1.8l2.548-0.371l1.041-0.151l0.465-0.943 L50,20.524 M50,16l-2.927,5.938l-6.554,0.953l4.74,4.628l-1.113,6.521L50,30.964l5.854,3.076l-1.112-6.521l4.741-4.628l-6.556-0.953 L50,16L50,16z"/>
<rect fill="#FFFFFF" x="63.5" y="27.5" width="9" height="3"/>
<rect fill="#FFFFFF" x="27.5" y="27.5" width="9" height="3"/>
<circle fill="#FFFFFF" cx="50" cy="39" r="2.5"/>
<circle fill="#FFFFFF" cx="12" cy="39" r="2.5"/>
<circle fill="#FFFFFF" cx="12" cy="48" r="2.5"/>
<circle fill="#FFFFFF" cx="12" cy="57" r="2.5"/>
<circle fill="#FFFFFF" cx="88" cy="48" r="2.5"/>
<circle fill="#FFFFFF" cx="88" cy="57" r="2.5"/>
<circle fill="#FFFFFF" cx="31" cy="39" r="2.5"/>
<circle fill="#FFFFFF" cx="40.5" cy="39" r="2.5"/>
<circle fill="#FFFFFF" cx="21.5" cy="39" r="2.5"/>
<circle fill="#FFFFFF" cx="88" cy="39" r="2.5"/>
<circle fill="#FFFFFF" cx="78.5" cy="39" r="2.5"/>
<circle fill="#FFFFFF" cx="69" cy="39" r="2.5"/>
<circle fill="#FFFFFF" cx="59.5" cy="39" r="2.5"/>
<circle fill="#FFFFFF" cx="50" cy="66" r="2.5"/>
<circle fill="#FFFFFF" cx="12" cy="66" r="2.5"/>
<circle fill="#FFFFFF" cx="31" cy="66" r="2.5"/>
<circle fill="#FFFFFF" cx="40.5" cy="66" r="2.5"/>
<circle fill="#FFFFFF" cx="21.5" cy="66" r="2.5"/>
<circle fill="#FFFFFF" cx="88" cy="66" r="2.5"/>
<circle fill="#FFFFFF" cx="78.5" cy="66" r="2.5"/>
<circle fill="#FFFFFF" cx="69" cy="66" r="2.5"/>
<circle fill="#FFFFFF" cx="59.5" cy="66" r="2.5"/>
</svg>
