<?xml version="1.0" encoding="utf-8"?>
<!DOCTYPE svg PUBLIC "-//W3C//DTD SVG 1.1//EN" "http://www.w3.org/Graphics/SVG/1.1/DTD/svg11.dtd">
<svg version="1.1" id="Layer_1" xmlns="http://www.w3.org/2000/svg" xmlns:xlink="http://www.w3.org/1999/xlink" x="0px" y="0px"
	 width="243px" height="48px" viewBox="0 0 243 48" enable-background="new 0 0 243 48" xml:space="preserve">

<g>
	<g>
		<g>
			<rect width="243px" height="48px" style="fill:rgba(0,0,0,0)" />
			<path fill="#ffffff" d="M32.649,11.259c2.474-0.171,7.482-0.305,14.719-0.305v4.718H26v-6.73
				c7.342-2.373,12.314-3.829,14.719-4.328V4.438C38.286,4.585,33.291,4.72,26,4.72V0h21.368v6.751
				c-7.252,2.357-12.286,3.814-14.719,4.336V11.259z"/>
			<path fill="#ffffff" d="M26,19.038h21.368v10.907h-3.435v-5.573h-5.077v5.563H35.42v-5.563H26V19.038z"/>
			<path fill="#ffffff" d="M37.275,42.484c-0.483,3.383-2.125,5.016-5.345,5.016C27.609,47.5,26,44.271,26,39.514v-7.032h21.368
				v6.195c0,4.811-1.111,8.039-5.238,8.039c-3.052,0-4.468-1.873-4.731-4.232H37.275z M38.857,37.817v1.486
				c0,1.462,0.828,2.213,2.626,2.213c1.745,0,2.452-0.862,2.452-2.255v-1.444H38.857z M29.433,37.817v1.461
				c0,1.861,0.789,2.779,2.831,2.779c1.884,0,3.161-0.861,3.161-2.739v-1.501H29.433z"/>
			<path fill="#ffffff" d="M11.069,47.822C3.414,47.822,0,45.051,0,39.87c0-5.18,3.414-7.951,11.099-7.951
				c7.696,0,11.113,2.771,11.113,7.951c0,5.182-3.417,7.952-11.113,7.952H11.069z M3.405,39.902c0,1.374,1.636,2.461,7.701,2.461
				c6,0,7.64-1.087,7.64-2.493c0-1.404-1.64-2.491-7.64-2.491c-6.064,0-7.701,1.087-7.701,2.491V39.902z"/>
			<path fill="#ffffff" d="M15.141,18.521c-2.474,0.172-7.482,0.306-14.719,0.306v-4.719h21.368v6.733
				c-7.342,2.372-12.313,3.828-14.718,4.328v0.174c2.433-0.146,7.428-0.281,14.718-0.281v4.72H0.421v-6.753
				c7.252-2.355,12.285-3.813,14.719-4.336V18.521z"/>
			<path fill="#ffffff" d="M21.789,10.906H0.421V0h3.436v5.573h5.077V0h3.435v5.573h9.42V10.906z"/>
		</g>
		<g>
			<path fill="#ffffff" d="M85.288,28.268c5.056-0.676,9.938-3.121,13.712-7.347v-0.07c-3.765-4.221-8.646-6.663-13.691-7.346
				c2.94,1.16,5.021,4.025,5.021,7.376C90.33,24.244,88.24,27.114,85.288,28.268z"/>
			<path fill="#ffffff" d="M79.515,13.496c-5.079,0.67-9.975,3.127-13.763,7.39c3.786,4.256,8.692,6.713,13.769,7.387
				c-2.956-1.152-5.054-4.026-5.054-7.391C74.466,17.521,76.561,14.649,79.515,13.496z"/>
			<path fill="#ffffff" d="M92.518,35.045l-0.542,0.188l0.004,0.561c0,0,0,5.948,0,12.207H99V31.915
				C96.983,33.199,94.816,34.251,92.518,35.045z"/>
			<path fill="#ffffff" d="M72.817,35.254l-0.531-0.177c-7.129-2.457-13.011-7.362-17.058-14.183
				c5.766-9.718,15.527-15.568,26.335-15.831l1.628,0.006C88.904,5.234,94.317,6.934,99,9.919V0H51v48h21.817
				C72.817,41.508,72.817,35.254,72.817,35.254z"/>
		</g>
	</g>
	<g>
		<path fill="#ffffff" d="M109.536,0c2.706,0,3.536,2.4,3.536,4.723s-0.83,4.724-3.536,4.724S106,7.046,106,4.723
			S106.83,0,109.536,0z M109.536,7.762c1.06,0,1.06-1.251,1.06-3.039c0-1.787,0-3.038-1.06-3.038s-1.06,1.251-1.06,3.038
			C108.477,6.511,108.477,7.762,109.536,7.762z"/>
		<path fill="#ffffff" d="M113.787,0.179h5.477V1.94h-3.179v1.838h2.259v1.762h-2.259v3.727h-2.298V0.179z"/>
		<path fill="#ffffff" d="M119.786,0.179h5.477V1.94h-3.179v1.838h2.259v1.762h-2.259v3.727h-2.298V0.179z"/>
		<path fill="#ffffff" d="M125.773,0.179h2.298v9.089h-2.298V0.179z"/>
		<path fill="#ffffff" d="M133.394,3.358c0-0.613-0.153-1.673-0.983-1.673c-0.97,0-1.11,1.366-1.11,3.051
			c0,1.864,0.089,3.026,1.162,3.026c0.842,0,1.034-0.689,1.085-1.826l1.991,0.178c0,1.992-1.188,3.333-3.179,3.333
			c-2.783,0-3.536-2.362-3.536-4.724c0-2.183,0.74-4.723,3.536-4.723c2.196,0,3.179,1.481,3.179,3.358H133.394z"/>
		<path fill="#ffffff" d="M136.38,0.179h5.72V1.94h-3.422v1.838h2.297v1.762h-2.297v1.889h3.422v1.838h-5.72V0.179z"/>
		<path fill="#ffffff" d="M146.185,0.179h1.914l2.617,4.889h0.027V0.179h1.838v9.089h-1.838L148.048,4.2h-0.025v5.067h-1.838V0.179z
			"/>
		<path fill="#ffffff" d="M155.185,0.179h3.012l1.941,9.089h-2.322l-0.359-1.838h-2.105l-0.396,1.838h-1.9L155.185,0.179z
			 M155.669,5.821h1.469l-0.664-3.702h-0.025L155.669,5.821z"/>
		<path fill="#ffffff" d="M159.257,0.179h6.408V1.94h-2.057v7.327h-2.297V1.94h-2.055V0.179z"/>
		<path fill="#ffffff" d="M166.099,0.179h2.297v9.089h-2.297V0.179z"/>
		<path fill="#ffffff" d="M172.685,0c2.707,0,3.537,2.4,3.537,4.723s-0.83,4.724-3.537,4.724c-2.705,0-3.535-2.4-3.535-4.724
			S169.979,0,172.685,0z M172.685,7.762c1.061,0,1.061-1.251,1.061-3.039c0-1.787,0-3.038-1.061-3.038
			c-1.059,0-1.059,1.251-1.059,3.038C171.626,6.511,171.626,7.762,172.685,7.762z"/>
		<path fill="#ffffff" d="M176.937,0.179h1.914l2.617,4.889h0.025V0.179h1.838v9.089h-1.838L178.8,4.2h-0.025v5.067h-1.838V0.179z"
			/>
		<path fill="#ffffff" d="M185.935,0.179h3.014l1.939,9.089h-2.322l-0.357-1.838h-2.107l-0.395,1.838h-1.902L185.935,0.179z
			 M186.421,5.821h1.467l-0.662-3.702h-0.027L186.421,5.821z"/>
		<path fill="#ffffff" d="M191.36,0.179h2.297v7.48h3.115v1.608h-5.412V0.179z"/>
		<path fill="#ffffff" d="M200.282,0.179h2.49c2.82,0,4.148,1.736,4.148,4.404c0,2.591-1.086,4.685-3.867,4.685h-2.771V0.179z
			 M202.581,7.659h0.256c1.607,0,1.607-1.966,1.607-3.166c0-1.047-0.152-2.707-1.672-2.707h-0.191V7.659z"/>
		<path fill="#ffffff" d="M213.763,6.383c0,2.042-1.135,3.064-3.139,3.064c-2.082,0-3.014-1.111-3.014-3.064V0.179h2.297v6.306
			c0,0.689,0.23,1.277,0.996,1.277c0.779,0,0.945-0.715,0.945-1.392V0.179h1.914V6.383z"/>
		<path fill="#ffffff" d="M218.358,0.179h5.477V1.94h-3.178v1.838h2.258v1.762h-2.258v3.727h-2.299V0.179z"/>
		<path fill="#ffffff" d="M224.347,0.179h2.297v9.089h-2.297V0.179z"/>
		<path fill="#ffffff" d="M227.854,0.179h2.299v7.48h3.115v1.608h-5.414V0.179z"/>
		<path fill="#ffffff" d="M233.741,0.179h3.217l0.982,5.093h0.025l1.162-5.093h3.127v9.089h-2.297V2.553h-0.025l-1.57,6.714h-1.393
			l-1.441-6.944h-0.025v6.944h-1.762V0.179z"/>
		<path fill="#ffffff" d="M107,12.179h2.489c2.821,0,4.149,1.736,4.149,4.404c0,2.592-1.085,4.685-3.868,4.685H107V12.179z
			 M109.298,19.659h0.255c1.608,0,1.608-1.965,1.608-3.166c0-1.047-0.153-2.706-1.672-2.706h-0.191V19.659z"/>
		<path fill="#ffffff" d="M120.48,18.383c0,2.042-1.136,3.063-3.14,3.063c-2.081,0-3.013-1.111-3.013-3.063v-6.205h2.298v6.305
			c0,0.69,0.23,1.277,0.996,1.277c0.778,0,0.944-0.715,0.944-1.391v-6.192h1.915V18.383z"/>
		<path fill="#ffffff" d="M129.186,15.357c0-0.613-0.152-1.672-0.982-1.672c-0.97,0-1.111,1.366-1.111,3.051
			c0,1.863,0.089,3.025,1.162,3.025c0.843,0,1.034-0.689,1.085-1.825l1.992,0.179c0,1.991-1.188,3.332-3.179,3.332
			c-2.782,0-3.536-2.362-3.536-4.724c0-2.183,0.741-4.723,3.536-4.723c2.195,0,3.179,1.481,3.179,3.357H129.186z"/>
		<path fill="#ffffff" d="M133.284,12.179h3.013l1.941,9.088h-2.323l-0.358-1.838h-2.106l-0.396,1.838h-1.901L133.284,12.179z
			 M133.769,17.821h1.468l-0.664-3.702h-0.025L133.769,17.821z"/>
		<path fill="#ffffff" d="M138.71,12.179h1.914l2.617,4.889h0.025v-4.889h1.838v9.088h-1.838l-2.693-5.067h-0.025v5.067h-1.838
			V12.179z"/>
		<path fill="#ffffff" d="M147.708,12.179h3.014l1.939,9.088h-2.322l-0.357-1.838h-2.107l-0.395,1.838h-1.902L147.708,12.179z
			 M148.194,17.821h1.467l-0.662-3.702h-0.025L148.194,17.821z"/>
		<path fill="#ffffff" d="M153.134,12.179h2.49c2.82,0,4.148,1.736,4.148,4.404c0,2.592-1.086,4.685-3.867,4.685h-2.771V12.179z
			 M155.433,19.659h0.254c1.609,0,1.609-1.965,1.609-3.166c0-1.047-0.154-2.706-1.672-2.706h-0.191V19.659z"/>
		<path fill="#ffffff" d="M161.571,12.179h3.014l1.939,9.088h-2.322l-0.359-1.838h-2.105l-0.396,1.838h-1.9L161.571,12.179z
			 M162.058,17.821h1.467l-0.664-3.702h-0.025L162.058,17.821z"/>
	</g>
	<g>
		<path fill="#ffffff" d="M107,26.178h1.915l2.617,4.889h0.025v-4.889h1.838v9.09h-1.838l-2.693-5.068h-0.025v5.068H107V26.178z"/>
		<path fill="#ffffff" d="M116,26.178h3.013l1.94,9.09h-2.323l-0.358-1.838h-2.106l-0.396,1.838h-1.902L116,26.178z M116.485,31.821
			h1.468l-0.664-3.701h-0.026L116.485,31.821z"/>
		<path fill="#ffffff" d="M120.072,26.178h6.408v1.762h-2.056v7.328h-2.298V27.94h-2.055V26.178z"/>
		<path fill="#ffffff" d="M126.914,26.178h2.297v9.09h-2.297V26.178z"/>
		<path fill="#ffffff" d="M133.501,26c2.706,0,3.535,2.4,3.535,4.723s-0.83,4.723-3.535,4.723c-2.707,0-3.536-2.4-3.536-4.723
			S130.794,26,133.501,26z M133.501,33.762c1.06,0,1.06-1.252,1.06-3.039s0-3.037-1.06-3.037c-1.061,0-1.061,1.25-1.061,3.037
			S132.44,33.762,133.501,33.762z"/>
		<path fill="#ffffff" d="M137.753,26.178h1.914l2.617,4.889h0.025v-4.889h1.838v9.09h-1.838l-2.693-5.068h-0.025v5.068h-1.838
			V26.178z"/>
		<path fill="#ffffff" d="M146.751,26.178h3.014l1.939,9.09h-2.324l-0.355-1.838h-2.107l-0.395,1.838h-1.902L146.751,26.178z
			 M147.235,31.821h1.469l-0.664-3.701h-0.025L147.235,31.821z"/>
		<path fill="#ffffff" d="M152.177,26.178h2.297v7.48h3.115v1.609h-5.412V26.178z"/>
		<path fill="#ffffff" d="M161.099,26.178h5.477v1.762h-3.18v1.84h2.26v1.76h-2.26v3.729h-2.297V26.178z"/>
		<path fill="#ffffff" d="M167.085,26.178h2.299v9.09h-2.299V26.178z"/>
		<path fill="#ffffff" d="M170.597,26.178h2.297v7.48h3.115v1.609h-5.412V26.178z"/>
		<path fill="#ffffff" d="M176.481,26.178h3.217l0.982,5.094h0.025l1.162-5.094h3.127v9.09h-2.297v-6.715h-0.027l-1.568,6.715
			h-1.393l-1.441-6.945h-0.025v6.945h-1.762V26.178z"/>
		<path fill="#ffffff" d="M189.591,26.178h3.83c1.658,0,2.668,0.92,2.668,2.172c0,1.123-0.766,1.939-1.711,2.143v0.027
			c1.188,0.293,1.877,1.045,1.877,2.246c0,1.531-1.176,2.502-2.975,2.502h-3.689V26.178z M191.888,29.78h0.754
			c0.83,0,1.148-0.447,1.148-0.984c0-0.867-0.574-1.008-1.098-1.008h-0.805V29.78z M191.888,33.583h0.844
			c0.498,0,1.148-0.217,1.148-1.148c0-0.676-0.408-1.123-1.148-1.123h-0.844V33.583z"/>
		<path fill="#ffffff" d="M199.995,26c2.705,0,3.535,2.4,3.535,4.723s-0.83,4.723-3.535,4.723c-2.707,0-3.537-2.4-3.537-4.723
			S197.288,26,199.995,26z M199.995,33.762c1.059,0,1.059-1.252,1.059-3.039s0-3.037-1.059-3.037c-1.061,0-1.061,1.25-1.061,3.037
			S198.935,33.762,199.995,33.762z"/>
		<path fill="#ffffff" d="M205.356,26.178h3.012l1.939,9.09h-2.322l-0.357-1.838h-2.105l-0.396,1.838h-1.902L205.356,26.178z
			 M205.841,31.821h1.467l-0.662-3.701h-0.025L205.841,31.821z"/>
		<path fill="#ffffff" d="M210.78,26.178h3.422c1.723,0,3.051,0.793,3.051,2.578c0,0.959-0.625,1.764-1.52,2.094l1.52,4.418h-2.273
			l-1.135-3.932h-0.766v3.932h-2.299V26.178z M213.079,29.881h0.447c0.867,0,1.428-0.268,1.428-0.996
			c0-0.945-0.727-1.021-1.492-1.021h-0.383V29.881z"/>
		<path fill="#ffffff" d="M217.878,26.178h2.49c2.82,0,4.148,1.736,4.148,4.404c0,2.592-1.086,4.686-3.869,4.686h-2.77V26.178z
			 M220.177,33.659h0.256c1.607,0,1.607-1.965,1.607-3.166c0-1.045-0.154-2.705-1.672-2.705h-0.191V33.659z"/>
		<path fill="#ffffff" d="M109.536,38c2.706,0,3.536,2.398,3.536,4.723c0,2.322-0.83,4.723-3.536,4.723S106,45.045,106,42.723
			C106,40.399,106.83,38,109.536,38z M109.536,45.762c1.06,0,1.06-1.252,1.06-3.039s0-3.037-1.06-3.037s-1.06,1.25-1.06,3.037
			S108.477,45.762,109.536,45.762z"/>
		<path fill="#ffffff" d="M113.787,38.178h5.477v1.762h-3.179v1.838h2.259v1.764h-2.259v3.727h-2.298V38.178z"/>
		<path fill="#ffffff" d="M127.139,41.358c0-0.613-0.153-1.672-0.983-1.672c-0.971,0-1.111,1.365-1.111,3.049
			c0,1.863,0.089,3.027,1.162,3.027c0.843,0,1.034-0.691,1.084-1.826l1.992,0.178c0,1.992-1.187,3.332-3.179,3.332
			c-2.783,0-3.536-2.361-3.536-4.723c0-2.184,0.74-4.723,3.536-4.723c2.196,0,3.179,1.48,3.179,3.357H127.139z"/>
		<path fill="#ffffff" d="M131.237,38.178h3.012l1.941,9.09h-2.323l-0.358-1.838h-2.106l-0.396,1.838h-1.902L131.237,38.178z
			 M131.722,43.821h1.467l-0.664-3.703H132.5L131.722,43.821z"/>
		<path fill="#ffffff" d="M136.661,38.178h1.916l2.615,4.889h0.027v-4.889h1.838v9.09h-1.838l-2.695-5.068h-0.025v5.068h-1.838
			V38.178z"/>
		<path fill="#ffffff" d="M145.661,38.178h3.014l1.939,9.09h-2.322l-0.359-1.838h-2.105l-0.396,1.838h-1.9L145.661,38.178z
			 M146.147,43.821h1.467l-0.664-3.703h-0.025L146.147,43.821z"/>
		<path fill="#ffffff" d="M151.087,38.178h2.488c2.82,0,4.148,1.736,4.148,4.404c0,2.592-1.084,4.686-3.867,4.686h-2.77V38.178z
			 M153.384,45.659h0.256c1.609,0,1.609-1.965,1.609-3.166c0-1.047-0.154-2.705-1.674-2.705h-0.191V45.659z"/>
		<path fill="#ffffff" d="M159.524,38.178h3.012l1.941,9.09h-2.324l-0.357-1.838h-2.105l-0.396,1.838h-1.9L159.524,38.178z
			 M160.009,43.821h1.469l-0.664-3.703h-0.025L160.009,43.821z"/>
	</g>
</g>
</svg>
