<?xml version="1.0" encoding="utf-8"?>
<!-- Generator: Adobe Illustrator 17.1.0, SVG Export Plug-In . SVG Version: 6.00 Build 0)  -->
<!DOCTYPE svg PUBLIC "-//W3C//DTD SVG 1.1//EN" "http://www.w3.org/Graphics/SVG/1.1/DTD/svg11.dtd">
<svg version="1.1" id="Layer_1" xmlns="http://www.w3.org/2000/svg" xmlns:xlink="http://www.w3.org/1999/xlink" x="0px" y="0px"
	 viewBox="39 0 35 35" enable-background="new 39 0 35 35" xml:space="preserve">
<path d="M64.2,20.9c3.7-0.5,7.3-2.3,10.1-5.4v-0.1c-2.8-3.1-6.4-4.9-10.1-5.4c2.2,0.9,3.7,3,3.7,5.4S66.4,20,64.2,20.9z"/>
<path d="M60,9.9c-3.8,0.5-7.3,2.3-10.2,5.4c2.8,3.1,6.4,4.9,10.2,5.4c-2.2-0.9-3.7-3-3.7-5.4S57.8,10.8,60,9.9z"/>
<path d="M69.6,25.9L69.2,26v0.4c0,0,0,4.4,0,9h5.2V23.5C72.8,24.5,71.3,25.3,69.6,25.9z"/>
<path d="M55,26l-0.4-0.1C49.4,24.1,45,20.5,42,15.4C46.3,8.3,53.5,4,61.5,3.8h1.2c4.2,0.1,8.2,1.4,11.6,3.6V0H38.9v35.4H55
	C55,30.6,55,26,55,26z"/>
</svg>
