<svg xmlns="http://www.w3.org/2000/svg" viewBox="0 0 32 64" width="32px" height="64px" enable-background="new 0 0 32 64" fill="#ffffff"><path d="M21.419 7.329c1.61-.112 4.87-.199 9.581-.199v3.072h-13.909v-4.382c4.779-1.544 8.016-2.492 9.581-2.817v-.114c-1.584.096-4.835.183-9.581.183v-3.072h13.909v4.395c-4.721 1.533-7.997 2.483-9.581 2.823v.111zm-4.328 5.063h13.909v7.099h-2.236v-3.628h-3.305v3.622h-2.237v-3.622h-6.132v-3.471zm7.34 15.263c-.314 2.202-1.384 3.265-3.479 3.265-2.813 0-3.86-2.102-3.86-5.198v-4.577h13.908v4.032c0 3.131-.723 5.233-3.409 5.233-1.987 0-2.908-1.219-3.08-2.755h-.08zm1.029-3.038v.968c0 .952.539 1.441 1.71 1.441 1.136 0 1.596-.562 1.596-1.468v-.941h-3.306zm-6.135 0v.951c0 1.211.513 1.808 1.843 1.808 1.227 0 2.057-.56 2.057-1.783v-.977h-3.9zm-12.12 6.512c-4.983 0-7.205-1.804-7.205-5.176s2.222-5.176 7.225-5.176c5.01 0 7.234 1.804 7.234 5.176s-2.224 5.176-7.234 5.176h-.02zm-4.988-5.155c0 .894 1.065 1.601 5.013 1.601 3.906 0 4.973-.707 4.973-1.623 0-.914-1.067-1.622-4.973-1.622-3.948 0-5.013.708-5.013 1.622v.022zm7.365-13.918c-1.61.112-4.87.199-9.582.199v-3.072h13.91v4.382c-4.779 1.544-8.016 2.492-9.581 2.817v.113c1.584-.096 4.835-.183 9.581-.183v3.072h-13.91v-4.394c4.721-1.533 7.997-2.482 9.582-2.823v-.111zm4.328-4.957h-13.91v-7.099h2.237v3.627h3.305v-3.627h2.236v3.627h6.132v3.472zm8.234 44.158c3.265-.436 6.418-2.015 8.856-4.745v-.045c-2.432-2.726-5.584-4.304-8.842-4.745 1.899.749 3.242 2.6 3.242 4.764 0 2.171-1.35 4.025-3.256 4.771zm-3.729-9.541c-3.28.433-6.442 2.02-8.889 4.773 2.445 2.748 5.614 4.335 8.892 4.769-1.909-.744-3.264-2.599-3.264-4.772.001-2.17 1.354-4.025 3.261-4.77zm8.398 13.919l-.35.121.003.362v7.883h4.534v-10.389c-1.303.829-2.702 1.509-4.187 2.023zm-12.723.134l-.343-.116c-4.604-1.586-8.403-4.754-11.016-9.159 3.724-6.276 10.028-10.054 17.008-10.224l1.052.004c3.689.105 7.184 1.203 10.21 3.131v-6.405h-31.001v31h14.09v-8.231z"/></svg>