<?xml version="1.0" encoding="utf-8"?>
<!DOCTYPE svg PUBLIC "-//W3C//DTD SVG 1.1//EN" "http://www.w3.org/Graphics/SVG/1.1/DTD/svg11.dtd">
<svg version="1.1" id="Layer_1" xmlns="http://www.w3.org/2000/svg" xmlns:xlink="http://www.w3.org/1999/xlink" x="0px" y="0px" hidth="56px" height="56px" viewBox="0 0 56 56" enable-background="new 0 0 56 56" xml:space="preserve">
<path fill="#B3B3B3" d="M46.2,21.5c0,0-1.9-1.8-3.3-4.2c-1.1-3-1.1-6.6-2-8.6c-1.3-3-6.5-8.2-15.6-7.6C13.4,1.8,10.5,6.6,9.1,14.7
	c-1.2,6.5,1.8,13.6,3.7,15.8s7.5,8.6,7.7,11.7c0.4,3.3-3,7.4-3.5,8l-3.3,3.5c-0.5,0.5-0.1,1.4,0.6,1.4H40c0.5,0,0.7-0.6,0.4-0.9
	c-2.4-2.4-8.5-9.5-4.6-14c3.1-3.6,4.2-2,7.3-2.6c2.9-0.6,1.7-3,1.6-4.6c-0.1-1.6,0.3-1.5,0.7-2.1c0.3-0.5-0.2-0.9-0.5-1.1
	c-0.1,0-0.1-0.3,0-0.4c0.4-0.3,0.9-0.5,0.9-0.9c0-0.8-0.9-1.3-0.9-2.5c0-0.8,1.4-1.1,2-1.7C47.9,23.1,46.2,21.5,46.2,21.5z"/>
</svg>