<?xml version="1.0" encoding="utf-8"?>
<!-- Generator: Adobe Illustrator 15.1.0, SVG Export Plug-In . SVG Version: 6.00 Build 0)  -->
<!DOCTYPE svg PUBLIC "-//W3C//DTD SVG 1.1//EN" "http://www.w3.org/Graphics/SVG/1.1/DTD/svg11.dtd">
<svg version="1.1" id="Layer_1" xmlns="http://www.w3.org/2000/svg" xmlns:xlink="http://www.w3.org/1999/xlink" x="0px" y="0px"
	 width="25px" height="25px" viewBox="0 0 25 25" enable-background="new 0 0 25 25" xml:space="preserve">
<path fill="#ffffff" d="M14,1v2.859v0.75l0.72,0.211C15.3,4.99,15.85,5.22,16.36,5.5l0.659,0.359l0.53-0.529l2.021-2.02l2.12,2.119L19.67,7.45
	l-0.53,0.53l0.36,0.66c0.28,0.51,0.51,1.06,0.67,1.639L20.38,11h0.75H24v3h-2.86h-0.75l-0.21,0.72c-0.17,0.58-0.39,1.13-0.68,1.64
	l-0.36,0.66l0.53,0.53l2.021,2.021l-2.12,2.119l-2.021-2.02l-0.529-0.529L16.36,19.5c-0.511,0.279-1.061,0.51-1.641,0.67L14,20.38
	v0.75V24h-3v-2.859v-0.75l-0.72-0.211c-0.58-0.17-1.13-0.39-1.641-0.67L7.98,19.15L7.45,19.68L5.43,21.7l-2.12-2.12l2.021-2.02
	l0.53-0.53L5.5,16.37c-0.28-0.511-0.51-1.06-0.68-1.64L4.61,14.01H3.86H1v-3h2.86h0.75l0.21-0.72C4.99,9.71,5.22,9.16,5.49,8.65
	L5.85,7.99L5.32,7.46L3.3,5.439L5.42,3.32L7.44,5.34L7.97,5.87l0.66-0.36C9.14,5.23,9.69,5,10.27,4.83l0.721-0.21V3.87V1H14
	 M12.5,18c3.03,0,5.5-2.471,5.5-5.5S15.53,7,12.5,7S7,9.471,7,12.5S9.47,18,12.5,18 M15,0h-5v3.859C9.35,4.05,8.73,4.3,8.16,4.62
	L5.43,1.891L1.89,5.43l2.73,2.73C4.3,8.74,4.05,9.359,3.86,10H0v5h3.86c0.189,0.65,0.439,1.27,0.76,1.84l-2.73,2.73l3.54,3.539
	l2.73-2.729c0.58,0.32,1.2,0.57,1.84,0.761V25h5v-3.859c0.65-0.19,1.27-0.44,1.84-0.761l2.73,2.729l3.54-3.539l-2.73-2.73
	c0.32-0.58,0.57-1.199,0.76-1.84H25v-5h-3.86C20.95,9.35,20.7,8.73,20.38,8.16l2.73-2.73l-3.54-3.539L16.84,4.62
	c-0.58-0.32-1.2-0.57-1.85-0.761V0H15z M12.5,17C10.01,17,8,14.99,8,12.5S10.01,8,12.5,8s4.5,2.01,4.5,4.5S14.99,17,12.5,17L12.5,17
	z"/>
</svg>
