<?xml version="1.0" encoding="utf-8"?>
<svg version="1.1" id="Layer_1" xmlns="http://www.w3.org/2000/svg" xmlns:xlink="http://www.w3.org/1999/xlink" x="0px" y="0px"
	 width="50px" height="50px" viewBox="0 0 50 50" enable-background="new 0 0 50 50" xml:space="preserve">
<circle cx="25" cy="25" r="25"/>
<polygon fill="#FFFFFF" points="47,23 32.465,23 45.053,15.732 43.052,12.268 30.465,19.534 37.732,6.947 34.267,4.947 27,17.533 
	27,3 23,3 23,17.535 15.732,4.947 12.268,6.947 19.535,19.535 6.947,12.268 4.947,15.732 17.535,23 3,23 3,27 17.534,27 
	4.947,34.268 6.947,37.731 19.534,30.465 12.268,43.052 15.731,45.052 23,32.463 23,47 27,47 27,32.465 34.268,45.053 
	37.732,43.053 30.465,30.465 43.053,37.732 45.053,34.268 32.465,27 47,27 "/>
<circle cx="25" cy="25" r="19.5"/>
<polyline fill="none" stroke="#FFFFFF" stroke-width="3" points="35,31 25,26 25,11 "/>
</svg>
